<svg version="1.0" xmlns="http://www.w3.org/2000/svg" width="700pt" height="700pt" viewBox="0 0 700 700" preserveAspectRatio="xMidYMid meet">
<g transform="translate(0,700) scale(0.1,-0.1)" fill="#000" stroke="none">
<path d="M1020 3500v-2482l518 5c448 4 536 7 662 25 548 77 941 245 1291 553l81 72 23-19c13-11 57-47 97-80 121-101 293-210 463-294 356-176 721-260 1123-260h122v287l-177 6c-98 4-225 14-283 22-726 107-1344 561-1661 1220-145 302-213 603-213 945 0 96 6 218 13 270 66 494 280 929 626 1275 337 337 760 549 1235 620 58 9 185 18 283 22l177 6v287h-122c-209 0-435-27-628-75-334-84-709-271-958-479-40-33-84-69-97-80l-23-19-79 69c-298 262-635 428-1043 514-264 55-360 62-912 67l-518 5zM5100 4375v-725h-870v-300l1165 5 5 1745h-300z"/>
</g>
</svg>